<?xml version="1.0" encoding="UTF-8" standalone="no"?><!DOCTYPE svg PUBLIC "-//W3C//DTD SVG 1.1//EN" "http://www.w3.org/Graphics/SVG/1.1/DTD/svg11.dtd"><!-- Generated by graphviz version 2.40.1 (20161225.0304)
 --><!-- Title: finite_state_machine Pages: 1 --><svg xmlns="http://www.w3.org/2000/svg" xmlns:xlink="http://www.w3.org/1999/xlink" width="249pt" height="360pt" viewBox="0.00 0.00 249.00 360.00">
<g id="graph0" class="graph" transform="scale(.5075 .5075) rotate(0) translate(4 705.4007)">
<title>finite_state_machine</title>
<polygon fill="#ffffff" stroke="transparent" points="-4,4 -4,-705.4007 486.6662,-705.4007 486.6662,4 -4,4"/>
<!-- reset -->
<g id="node1" class="node">
<title>reset</title>
<ellipse fill="none" stroke="#000000" cx="419.6662" cy="-672.1367" rx="29.0299" ry="29.0299"/>
<text text-anchor="middle" x="419.6662" y="-667.9367" font-family="Times,serif" font-size="14.00" fill="#000000">reset</text>
</g>
<!-- reset&#45;&gt;reset -->
<g id="edge1" class="edge">
<title>reset-&gt;reset</title>
<path fill="none" stroke="#000000" d="M447.3383,-682.2222C458.0374,-682.6704 466.9302,-679.3086 466.9302,-672.1367 466.9302,-667.4302 463.1004,-664.3645 457.4436,-662.9397"/>
<polygon fill="#000000" stroke="#000000" points="457.6064,-659.4406 447.3383,-662.0513 456.9933,-666.4137 457.6064,-659.4406"/>
</g>
<!-- five -->
<g id="node2" class="node">
<title>five</title>
<ellipse fill="none" stroke="#000000" cx="331.6662" cy="-564.0226" rx="26.1004" ry="26.1004"/>
<text text-anchor="middle" x="331.6662" y="-559.8226" font-family="Times,serif" font-size="14.00" fill="#000000">five</text>
</g>
<!-- reset&#45;&gt;five -->
<g id="edge2" class="edge">
<title>reset-&gt;five</title>
<path fill="none" stroke="#000000" d="M401.0036,-649.2085C387.4406,-632.5454 369.0051,-609.8961 354.5529,-592.1405"/>
<polygon fill="#000000" stroke="#000000" points="357.252,-589.9121 348.2248,-584.366 351.823,-594.3311 357.252,-589.9121"/>
<text text-anchor="middle" x="391.2208" y="-612.2728" font-family="Times,serif" font-size="14.00" fill="#000000">c=5</text>
</g>
<!-- ten -->
<g id="node3" class="node">
<title>ten</title>
<ellipse fill="none" stroke="#000000" cx="226.6662" cy="-462.3371" rx="22.6719" ry="22.6719"/>
<text text-anchor="middle" x="226.6662" y="-458.1371" font-family="Times,serif" font-size="14.00" fill="#000000">ten</text>
</g>
<!-- reset&#45;&gt;ten -->
<g id="edge3" class="edge">
<title>reset-&gt;ten</title>
<path fill="none" stroke="#000000" d="M391.2673,-663.8709C357.3606,-652.5859 301.156,-629.1636 268.557,-590.0728 245.8927,-562.8951 235.3804,-523.0999 230.5759,-495.1684"/>
<polygon fill="#000000" stroke="#000000" points="234.0038,-494.4344 229.0006,-485.0953 227.0878,-495.516 234.0038,-494.4344"/>
<text text-anchor="middle" x="282.7208" y="-559.8226" font-family="Times,serif" font-size="14.00" fill="#000000">c=10</text>
</g>
<!-- twenty_five -->
<g id="node6" class="node">
<title>twenty_five</title>
<ellipse fill="none" stroke="#000000" cx="228.6662" cy="-58.5967" rx="58.6935" ry="58.6935"/>
<text text-anchor="middle" x="228.6662" y="-62.7967" font-family="Times,serif" font-size="14.00" fill="#000000">twenty_five</text>
<text text-anchor="middle" x="228.6662" y="-45.9967" font-family="Times,serif" font-size="14.00" fill="#000000"> vent=1</text>
</g>
<!-- reset&#45;&gt;twenty_five -->
<g id="edge4" class="edge">
<title>reset-&gt;twenty_five</title>
<path fill="none" stroke="#000000" d="M427.8009,-643.9462C433.338,-622.2818 439.6662,-591.5097 439.6662,-564.0226 439.6662,-564.0226 439.6662,-564.0226 439.6662,-224.1122 439.6662,-149.3148 356.5678,-103.2119 294.6694,-79.246"/>
<polygon fill="#000000" stroke="#000000" points="295.5252,-75.8287 284.9331,-75.5887 293.0637,-82.3817 295.5252,-75.8287"/>
<text text-anchor="middle" x="453.7208" y="-408.9017" font-family="Times,serif" font-size="14.00" fill="#000000">c=25</text>
</g>
<!-- five&#45;&gt;five -->
<g id="edge5" class="edge">
<title>five-&gt;five</title>
<path fill="none" stroke="#000000" d="M356.1276,-573.656C366.6808,-574.4447 375.7163,-571.2335 375.7163,-564.0226 375.7163,-559.2904 371.8251,-556.2808 366.1672,-554.9938"/>
<polygon fill="#000000" stroke="#000000" points="366.3199,-551.4967 356.1276,-554.3892 365.8991,-558.4841 366.3199,-551.4967"/>
</g>
<!-- five&#45;&gt;ten -->
<g id="edge6" class="edge">
<title>five-&gt;ten</title>
<path fill="none" stroke="#000000" d="M308.9692,-550.792C296.2965,-542.7901 280.6701,-531.8561 268.557,-519.9724 259.6103,-511.1952 251.1836,-500.3375 244.2666,-490.4211"/>
<polygon fill="#000000" stroke="#000000" points="247.0961,-488.3569 238.6017,-482.0249 241.2934,-492.2721 247.0961,-488.3569"/>
<text text-anchor="middle" x="279.2208" y="-507.3724" font-family="Times,serif" font-size="14.00" fill="#000000">c=5</text>
</g>
<!-- fifteen -->
<g id="node4" class="node">
<title>fifteen</title>
<ellipse fill="none" stroke="#000000" cx="226.6662" cy="-350.4664" rx="36.4722" ry="36.4722"/>
<text text-anchor="middle" x="226.6662" y="-346.2664" font-family="Times,serif" font-size="14.00" fill="#000000">fifteen</text>
</g>
<!-- five&#45;&gt;fifteen -->
<g id="edge7" class="edge">
<title>five-&gt;fifteen</title>
<path fill="none" stroke="#000000" d="M321.7931,-539.8354C311.2688,-514.512 293.7934,-473.7427 276.6662,-439.5017 268.5879,-423.3516 259.0224,-405.9578 250.4321,-390.8667"/>
<polygon fill="#000000" stroke="#000000" points="253.2429,-388.7326 245.2314,-381.7997 247.1709,-392.2155 253.2429,-388.7326"/>
<text text-anchor="middle" x="312.7208" y="-458.1371" font-family="Times,serif" font-size="14.00" fill="#000000">c=10</text>
</g>
<!-- five&#45;&gt;twenty_five -->
<g id="edge8" class="edge">
<title>five-&gt;twenty_five</title>
<path fill="none" stroke="#000000" d="M335.7872,-537.9634C343.052,-487.6833 356.1528,-373.9024 342.6662,-279.431 336.6053,-236.976 329.0834,-227.5258 315.6662,-186.7933 308.0202,-163.5816 309.2186,-156.1619 296.6662,-135.1933 291.0719,-125.8482 284.2619,-116.5901 277.1383,-107.9124"/>
<polygon fill="#000000" stroke="#000000" points="279.6696,-105.4858 270.5338,-100.1204 274.3297,-110.0119 279.6696,-105.4858"/>
<text text-anchor="middle" x="374.9354" y="-354.6664" font-family="Times,serif" font-size="14.00" fill="#000000">c=25</text>
<text text-anchor="middle" x="374.9354" y="-337.8664" font-family="Times,serif" font-size="14.00" fill="#000000">change=5</text>
</g>
<!-- ten&#45;&gt;ten -->
<g id="edge9" class="edge">
<title>ten-&gt;ten</title>
<path fill="none" stroke="#000000" d="M248.0953,-471.1173C258.4026,-472.2013 267.5015,-469.2746 267.5015,-462.3371 267.5015,-457.8927 263.7673,-455.0944 258.3735,-453.9421"/>
<polygon fill="#000000" stroke="#000000" points="258.2194,-450.434 248.0953,-453.5568 257.9571,-457.429 258.2194,-450.434"/>
</g>
<!-- ten&#45;&gt;fifteen -->
<g id="edge10" class="edge">
<title>ten-&gt;fifteen</title>
<path fill="none" stroke="#000000" d="M226.6662,-439.4284C226.6662,-427.2888 226.6662,-411.9157 226.6662,-397.3778"/>
<polygon fill="#000000" stroke="#000000" points="230.1663,-396.9978 226.6662,-386.9978 223.1663,-396.9979 230.1663,-396.9978"/>
<text text-anchor="middle" x="237.2208" y="-408.9017" font-family="Times,serif" font-size="14.00" fill="#000000">c=5</text>
</g>
<!-- twenty -->
<g id="node5" class="node">
<title>twenty</title>
<ellipse fill="none" stroke="#000000" cx="73.6662" cy="-224.1122" rx="37.1386" ry="37.1386"/>
<text text-anchor="middle" x="73.6662" y="-219.9122" font-family="Times,serif" font-size="14.00" fill="#000000">twenty</text>
</g>
<!-- ten&#45;&gt;twenty -->
<g id="edge11" class="edge">
<title>ten-&gt;twenty</title>
<path fill="none" stroke="#000000" d="M209.1064,-447.1227C193.2009,-432.704 169.8328,-409.862 153.557,-386.7017 127.4701,-349.5803 105.4146,-302.6657 91.131,-268.783"/>
<polygon fill="#000000" stroke="#000000" points="94.1992,-267.0452 87.1318,-259.1519 87.7344,-269.7296 94.1992,-267.0452"/>
<text text-anchor="middle" x="167.7208" y="-346.2664" font-family="Times,serif" font-size="14.00" fill="#000000">c=10</text>
</g>
<!-- ten&#45;&gt;twenty_five -->
<g id="edge12" class="edge">
<title>ten-&gt;twenty_five</title>
<path fill="none" stroke="#000000" d="M244.2007,-447.5821C259.3388,-433.6465 280.2179,-411.2653 289.6662,-386.7017 321.573,-303.7506 315.5955,-273.1698 294.6662,-186.7933 288.786,-162.5254 277.4677,-137.7058 265.8419,-116.449"/>
<polygon fill="#000000" stroke="#000000" points="268.8036,-114.5747 260.8556,-107.569 262.7,-118.0021 268.8036,-114.5747"/>
<text text-anchor="middle" x="325.7208" y="-283.631" font-family="Times,serif" font-size="14.00" fill="#000000">c=15</text>
</g>
<!-- fifteen&#45;&gt;fifteen -->
<g id="edge13" class="edge">
<title>fifteen-&gt;fifteen</title>
<path fill="none" stroke="#000000" d="M261.0912,-362.0885C272.1426,-361.9693 280.9015,-358.0953 280.9015,-350.4664 280.9015,-345.4599 277.1293,-342.0705 271.4126,-340.2982"/>
<polygon fill="#000000" stroke="#000000" points="271.4817,-336.7735 261.0912,-338.8442 270.5052,-343.705 271.4817,-336.7735"/>
</g>
<!-- fifteen&#45;&gt;twenty -->
<g id="edge14" class="edge">
<title>fifteen-&gt;twenty</title>
<path fill="none" stroke="#000000" d="M193.0799,-335.882C173.3322,-326.3324 148.5876,-312.6024 129.557,-296.231 118.6377,-286.8376 108.424,-275.0185 99.7923,-263.6819"/>
<polygon fill="#000000" stroke="#000000" points="102.5509,-261.5254 93.7992,-255.554 96.9168,-265.6797 102.5509,-261.5254"/>
<text text-anchor="middle" x="140.2208" y="-283.631" font-family="Times,serif" font-size="14.00" fill="#000000">c=5</text>
</g>
<!-- fifteen&#45;&gt;twenty_five -->
<g id="edge15" class="edge">
<title>fifteen-&gt;twenty_five</title>
<path fill="none" stroke="#000000" d="M205.7447,-320.7093C195.3527,-304.102 183.8984,-282.5526 178.557,-261.431 170.424,-229.2712 169.502,-218.7059 178.557,-186.7933 181.1231,-177.7494 185.6063,-177.2724 189.6662,-168.7933 196.3883,-154.7542 202.5832,-139.2358 207.9635,-124.3848"/>
<polygon fill="#000000" stroke="#000000" points="211.3385,-125.3389 211.3788,-114.7441 204.7403,-123.0014 211.3385,-125.3389"/>
<text text-anchor="middle" x="192.7208" y="-219.9122" font-family="Times,serif" font-size="14.00" fill="#000000">c=10</text>
</g>
<!-- fifteen&#45;&gt;twenty_five -->
<g id="edge16" class="edge">
<title>fifteen-&gt;twenty_five</title>
<path fill="none" stroke="#000000" d="M226.9154,-314.091C227.234,-267.5999 227.7921,-186.1492 228.1926,-127.7005"/>
<polygon fill="#000000" stroke="#000000" points="231.6943,-127.4576 228.263,-117.4338 224.6945,-127.4095 231.6943,-127.4576"/>
<text text-anchor="middle" x="259.4354" y="-228.3122" font-family="Times,serif" font-size="14.00" fill="#000000">c=25</text>
<text text-anchor="middle" x="259.4354" y="-211.5122" font-family="Times,serif" font-size="14.00" fill="#000000">change=15</text>
</g>
<!-- twenty&#45;&gt;twenty -->
<g id="edge17" class="edge">
<title>twenty-&gt;twenty</title>
<path fill="none" stroke="#000000" d="M109.3139,-235.7258C120.3324,-235.4912 128.985,-231.62 128.985,-224.1122 128.985,-219.1852 125.2587,-215.8243 119.5827,-214.0296"/>
<polygon fill="#000000" stroke="#000000" points="119.7208,-210.5116 109.3139,-212.4985 118.6884,-217.4351 119.7208,-210.5116"/>
</g>
<!-- twenty&#45;&gt;twenty_five -->
<g id="edge18" class="edge">
<title>twenty-&gt;twenty_five</title>
<path fill="none" stroke="#000000" d="M41.5576,-204.6199C16.3378,-186.7923 -11.8439,-159.5651 5.557,-135.1933 24.0595,-109.2786 102.4066,-86.5844 161.0675,-72.7602"/>
<polygon fill="#000000" stroke="#000000" points="162.0832,-76.1177 171.0353,-70.4511 160.5034,-69.2982 162.0832,-76.1177"/>
<text text-anchor="middle" x="16.2208" y="-147.7933" font-family="Times,serif" font-size="14.00" fill="#000000">c=5</text>
</g>
<!-- twenty&#45;&gt;twenty_five -->
<g id="edge19" class="edge">
<title>twenty-&gt;twenty_five</title>
<path fill="none" stroke="#000000" d="M53.4602,-192.4527C44.7634,-174.4896 38.8788,-152.2599 50.1278,-135.1933 74.5975,-98.0687 121.21,-78.8673 160.6714,-68.9745"/>
<polygon fill="#000000" stroke="#000000" points="161.5994,-72.3518 170.5321,-66.6547 159.9963,-65.5378 161.5994,-72.3518"/>
<text text-anchor="middle" x="77.9354" y="-156.1933" font-family="Times,serif" font-size="14.00" fill="#000000">c=10</text>
<text text-anchor="middle" x="77.9354" y="-139.3933" font-family="Times,serif" font-size="14.00" fill="#000000">change=5</text>
</g>
<!-- twenty&#45;&gt;twenty_five -->
<g id="edge20" class="edge">
<title>twenty-&gt;twenty_five</title>
<path fill="none" stroke="#000000" d="M92.1106,-191.2201C104.3628,-169.9419 119.6941,-144.5296 128.1278,-135.1933 140.7247,-121.2482 156.1449,-108.0612 171.0898,-96.6857"/>
<polygon fill="#000000" stroke="#000000" points="173.3898,-99.3369 179.3226,-90.559 169.2107,-93.7213 173.3898,-99.3369"/>
<text text-anchor="middle" x="159.4354" y="-156.1933" font-family="Times,serif" font-size="14.00" fill="#000000">c=25</text>
<text text-anchor="middle" x="159.4354" y="-139.3933" font-family="Times,serif" font-size="14.00" fill="#000000">change=20</text>
</g>
<!-- twenty_five&#45;&gt;reset -->
<g id="edge21" class="edge">
<title>twenty_five-&gt;reset</title>
<path fill="none" stroke="#000000" d="M286.3027,-69.5394C361.2433,-87.4907 482.6662,-130.9509 482.6662,-224.1122 482.6662,-564.0226 482.6662,-564.0226 482.6662,-564.0226 482.6662,-594.1325 464.1991,-623.3299 447.2616,-643.7768"/>
<polygon fill="#000000" stroke="#000000" points="444.532,-641.5827 440.6443,-651.4384 449.8296,-646.1582 444.532,-641.5827"/>
</g>
</g>
</svg>